<?xml version="1.0" encoding="utf-8" standalone="no"?>
<!DOCTYPE svg PUBLIC "-//W3C//DTD SVG 1.1//EN"
  "http://www.w3.org/Graphics/SVG/1.1/DTD/svg11.dtd">
<svg xmlns:xlink="http://www.w3.org/1999/xlink" width="615.039906pt" height="449.259125pt" viewBox="0 0 615.039906 449.259125" xmlns="http://www.w3.org/2000/svg" version="1.1">
 <metadata>
  <rdf:RDF xmlns:dc="http://purl.org/dc/elements/1.1/" xmlns:cc="http://creativecommons.org/ns#" xmlns:rdf="http://www.w3.org/1999/02/22-rdf-syntax-ns#">
   <cc:Work>
    <dc:type rdf:resource="http://purl.org/dc/dcmitype/StillImage"/>
    <dc:date>2026-07-21T07:25:12.709442</dc:date>
    <dc:format>image/svg+xml</dc:format>
    <dc:creator>
     <cc:Agent>
      <dc:title>Matplotlib v3.11.0, https://matplotlib.org/</dc:title>
     </cc:Agent>
    </dc:creator>
   </cc:Work>
  </rdf:RDF>
 </metadata>
 <defs>
  <style type="text/css">*{stroke-linejoin: round; stroke-linecap: butt}</style>
 </defs>
 <g id="figure_1">
  <g id="patch_1">
   <path d="M 0 449.259125 
L 615.039906 449.259125 
L 615.039906 0 
L 0 0 
z
" style="fill: #ffffff"/>
  </g>
  <g id="axes_1">
   <g id="patch_2">
    <path d="M 47.103906 199.581517 
L 304.322255 199.581517 
L 304.322255 38.682344 
L 47.103906 38.682344 
z
" style="fill: #ffffff"/>
   </g>
   <g id="matplotlib.axis_1">
    <g id="xtick_1">
     <g id="line2d_1"/>
     <g id="text_1">
      <!-- Negative -->
      <g transform="translate(92.904884 211.179955) scale(0.1 -0.1)">
       <defs>
        <path id="DejaVuSans-31" d="M 628 4666 
L 1478 4666 
L 3547 763 
L 3547 4666 
L 4159 4666 
L 4159 0 
L 3309 0 
L 1241 3903 
L 1241 0 
L 628 0 
L 628 4666 
z
" transform="scale(0.015625)"/>
        <path id="DejaVuSans-48" d="M 3597 1894 
L 3597 1613 
L 953 1613 
Q 991 1019 1311 708 
Q 1631 397 2203 397 
Q 2534 397 2845 478 
Q 3156 559 3463 722 
L 3463 178 
Q 3153 47 2828 -22 
Q 2503 -91 2169 -91 
Q 1331 -91 842 396 
Q 353 884 353 1716 
Q 353 2575 817 3079 
Q 1281 3584 2069 3584 
Q 2775 3584 3186 3129 
Q 3597 2675 3597 1894 
z
M 3022 2063 
Q 3016 2534 2758 2815 
Q 2500 3097 2075 3097 
Q 1594 3097 1305 2825 
Q 1016 2553 972 2059 
L 3022 2063 
z
" transform="scale(0.015625)"/>
        <path id="DejaVuSans-4a" d="M 2906 1791 
Q 2906 2416 2648 2759 
Q 2391 3103 1925 3103 
Q 1463 3103 1205 2759 
Q 947 2416 947 1791 
Q 947 1169 1205 825 
Q 1463 481 1925 481 
Q 2391 481 2648 825 
Q 2906 1169 2906 1791 
z
M 3481 434 
Q 3481 -459 3084 -895 
Q 2688 -1331 1869 -1331 
Q 1566 -1331 1297 -1286 
Q 1028 -1241 775 -1147 
L 775 -588 
Q 1028 -725 1275 -790 
Q 1522 -856 1778 -856 
Q 2344 -856 2625 -561 
Q 2906 -266 2906 331 
L 2906 616 
Q 2728 306 2450 153 
Q 2172 0 1784 0 
Q 1141 0 747 490 
Q 353 981 353 1791 
Q 353 2603 747 3093 
Q 1141 3584 1784 3584 
Q 2172 3584 2450 3431 
Q 2728 3278 2906 2969 
L 2906 3500 
L 3481 3500 
L 3481 434 
z
" transform="scale(0.015625)"/>
        <path id="DejaVuSans-44" d="M 2194 1759 
Q 1497 1759 1228 1600 
Q 959 1441 959 1056 
Q 959 750 1161 570 
Q 1363 391 1709 391 
Q 2188 391 2477 730 
Q 2766 1069 2766 1631 
L 2766 1759 
L 2194 1759 
z
M 3341 1997 
L 3341 0 
L 2766 0 
L 2766 531 
Q 2569 213 2275 61 
Q 1981 -91 1556 -91 
Q 1019 -91 701 211 
Q 384 513 384 1019 
Q 384 1609 779 1909 
Q 1175 2209 1959 2209 
L 2766 2209 
L 2766 2266 
Q 2766 2663 2505 2880 
Q 2244 3097 1772 3097 
Q 1472 3097 1187 3025 
Q 903 2953 641 2809 
L 641 3341 
Q 956 3463 1253 3523 
Q 1550 3584 1831 3584 
Q 2591 3584 2966 3190 
Q 3341 2797 3341 1997 
z
" transform="scale(0.015625)"/>
        <path id="DejaVuSans-57" d="M 1172 4494 
L 1172 3500 
L 2356 3500 
L 2356 3053 
L 1172 3053 
L 1172 1153 
Q 1172 725 1289 603 
Q 1406 481 1766 481 
L 2356 481 
L 2356 0 
L 1766 0 
Q 1100 0 847 248 
Q 594 497 594 1153 
L 594 3053 
L 172 3053 
L 172 3500 
L 594 3500 
L 594 4494 
L 1172 4494 
z
" transform="scale(0.015625)"/>
        <path id="DejaVuSans-4c" d="M 603 3500 
L 1178 3500 
L 1178 0 
L 603 0 
L 603 3500 
z
M 603 4863 
L 1178 4863 
L 1178 4134 
L 603 4134 
L 603 4863 
z
" transform="scale(0.015625)"/>
        <path id="DejaVuSans-59" d="M 191 3500 
L 800 3500 
L 1894 563 
L 2988 3500 
L 3597 3500 
L 2284 0 
L 1503 0 
L 191 3500 
z
" transform="scale(0.015625)"/>
       </defs>
       <use xlink:href="#DejaVuSans-31"/>
       <use xlink:href="#DejaVuSans-48" transform="translate(74.8125 0)"/>
       <use xlink:href="#DejaVuSans-4a" transform="translate(136.34375 0)"/>
       <use xlink:href="#DejaVuSans-44" transform="translate(199.828125 0)"/>
       <use xlink:href="#DejaVuSans-57" transform="translate(261.109375 0)"/>
       <use xlink:href="#DejaVuSans-4c" transform="translate(300.3125 0)"/>
       <use xlink:href="#DejaVuSans-59" transform="translate(328.09375 0)"/>
       <use xlink:href="#DejaVuSans-48" transform="translate(387.28125 0)"/>
      </g>
     </g>
    </g>
    <g id="xtick_2">
     <g id="line2d_2"/>
     <g id="text_2">
      <!-- Neutral -->
      <g transform="translate(217.625965 211.179955) scale(0.1 -0.1)">
       <defs>
        <path id="DejaVuSans-58" d="M 544 1381 
L 544 3500 
L 1119 3500 
L 1119 1403 
Q 1119 906 1312 657 
Q 1506 409 1894 409 
Q 2359 409 2629 706 
Q 2900 1003 2900 1516 
L 2900 3500 
L 3475 3500 
L 3475 0 
L 2900 0 
L 2900 538 
Q 2691 219 2414 64 
Q 2138 -91 1772 -91 
Q 1169 -91 856 284 
Q 544 659 544 1381 
z
M 1991 3584 
L 1991 3584 
z
" transform="scale(0.015625)"/>
        <path id="DejaVuSans-55" d="M 2631 2963 
Q 2534 3019 2420 3045 
Q 2306 3072 2169 3072 
Q 1681 3072 1420 2755 
Q 1159 2438 1159 1844 
L 1159 0 
L 581 0 
L 581 3500 
L 1159 3500 
L 1159 2956 
Q 1341 3275 1631 3429 
Q 1922 3584 2338 3584 
Q 2397 3584 2469 3576 
Q 2541 3569 2628 3553 
L 2631 2963 
z
" transform="scale(0.015625)"/>
        <path id="DejaVuSans-4f" d="M 603 4863 
L 1178 4863 
L 1178 0 
L 603 0 
L 603 4863 
z
" transform="scale(0.015625)"/>
       </defs>
       <use xlink:href="#DejaVuSans-31"/>
       <use xlink:href="#DejaVuSans-48" transform="translate(74.8125 0)"/>
       <use xlink:href="#DejaVuSans-58" transform="translate(136.34375 0)"/>
       <use xlink:href="#DejaVuSans-57" transform="translate(199.71875 0)"/>
       <use xlink:href="#DejaVuSans-55" transform="translate(238.921875 0)"/>
       <use xlink:href="#DejaVuSans-44" transform="translate(280.03125 0)"/>
       <use xlink:href="#DejaVuSans-4f" transform="translate(341.3125 0)"/>
      </g>
     </g>
    </g>
   </g>
   <g id="matplotlib.axis_2">
    <g id="ytick_1">
     <g id="line2d_3">
      <path d="M 47.103906 199.581517 
L 304.322255 199.581517 
" clip-path="url(#pbbfd309a0f)" style="fill: none; stroke: #d9d9d9; stroke-width: 0.7; stroke-linecap: square"/>
     </g>
     <g id="line2d_4">
      <defs>
       <path id="md4b44138a6" d="M 0 0 
L -3.5 0 
" style="stroke: #000000; stroke-width: 0.8"/>
      </defs>
      <g>
       <use xlink:href="#md4b44138a6" x="47.103906" y="199.581517" style="stroke: #000000; stroke-width: 0.8"/>
      </g>
     </g>
     <g id="text_3">
      <!-- 0.0 -->
      <g transform="translate(24.200781 203.380345) scale(0.1 -0.1)">
       <defs>
        <path id="DejaVuSans-13" d="M 2034 4250 
Q 1547 4250 1301 3770 
Q 1056 3291 1056 2328 
Q 1056 1369 1301 889 
Q 1547 409 2034 409 
Q 2525 409 2770 889 
Q 3016 1369 3016 2328 
Q 3016 3291 2770 3770 
Q 2525 4250 2034 4250 
z
M 2034 4750 
Q 2819 4750 3233 4129 
Q 3647 3509 3647 2328 
Q 3647 1150 3233 529 
Q 2819 -91 2034 -91 
Q 1250 -91 836 529 
Q 422 1150 422 2328 
Q 422 3509 836 4129 
Q 1250 4750 2034 4750 
z
" transform="scale(0.015625)"/>
        <path id="DejaVuSans-11" d="M 684 794 
L 1344 794 
L 1344 0 
L 684 0 
L 684 794 
z
" transform="scale(0.015625)"/>
       </defs>
       <use xlink:href="#DejaVuSans-13"/>
       <use xlink:href="#DejaVuSans-11" transform="translate(63.625 0)"/>
       <use xlink:href="#DejaVuSans-13" transform="translate(95.40625 0)"/>
      </g>
     </g>
    </g>
    <g id="ytick_2">
     <g id="line2d_5">
      <path d="M 47.103906 173.630038 
L 304.322255 173.630038 
" clip-path="url(#pbbfd309a0f)" style="fill: none; stroke: #d9d9d9; stroke-width: 0.7; stroke-linecap: square"/>
     </g>
     <g id="line2d_6">
      <g>
       <use xlink:href="#md4b44138a6" x="47.103906" y="173.630038" style="stroke: #000000; stroke-width: 0.8"/>
      </g>
     </g>
     <g id="text_4">
      <!-- 0.1 -->
      <g transform="translate(24.200781 177.428866) scale(0.1 -0.1)">
       <defs>
        <path id="DejaVuSans-14" d="M 794 531 
L 1825 531 
L 1825 4091 
L 703 3866 
L 703 4441 
L 1819 4666 
L 2450 4666 
L 2450 531 
L 3481 531 
L 3481 0 
L 794 0 
L 794 531 
z
" transform="scale(0.015625)"/>
       </defs>
       <use xlink:href="#DejaVuSans-13"/>
       <use xlink:href="#DejaVuSans-11" transform="translate(63.625 0)"/>
       <use xlink:href="#DejaVuSans-14" transform="translate(95.40625 0)"/>
      </g>
     </g>
    </g>
    <g id="ytick_3">
     <g id="line2d_7">
      <path d="M 47.103906 147.678558 
L 304.322255 147.678558 
" clip-path="url(#pbbfd309a0f)" style="fill: none; stroke: #d9d9d9; stroke-width: 0.7; stroke-linecap: square"/>
     </g>
     <g id="line2d_8">
      <g>
       <use xlink:href="#md4b44138a6" x="47.103906" y="147.678558" style="stroke: #000000; stroke-width: 0.8"/>
      </g>
     </g>
     <g id="text_5">
      <!-- 0.2 -->
      <g transform="translate(24.200781 151.477386) scale(0.1 -0.1)">
       <defs>
        <path id="DejaVuSans-15" d="M 1228 531 
L 3431 531 
L 3431 0 
L 469 0 
L 469 531 
Q 828 903 1448 1529 
Q 2069 2156 2228 2338 
Q 2531 2678 2651 2914 
Q 2772 3150 2772 3378 
Q 2772 3750 2511 3984 
Q 2250 4219 1831 4219 
Q 1534 4219 1204 4116 
Q 875 4013 500 3803 
L 500 4441 
Q 881 4594 1212 4672 
Q 1544 4750 1819 4750 
Q 2544 4750 2975 4387 
Q 3406 4025 3406 3419 
Q 3406 3131 3298 2873 
Q 3191 2616 2906 2266 
Q 2828 2175 2409 1742 
Q 1991 1309 1228 531 
z
" transform="scale(0.015625)"/>
       </defs>
       <use xlink:href="#DejaVuSans-13"/>
       <use xlink:href="#DejaVuSans-11" transform="translate(63.625 0)"/>
       <use xlink:href="#DejaVuSans-15" transform="translate(95.40625 0)"/>
      </g>
     </g>
    </g>
    <g id="ytick_4">
     <g id="line2d_9">
      <path d="M 47.103906 121.727078 
L 304.322255 121.727078 
" clip-path="url(#pbbfd309a0f)" style="fill: none; stroke: #d9d9d9; stroke-width: 0.7; stroke-linecap: square"/>
     </g>
     <g id="line2d_10">
      <g>
       <use xlink:href="#md4b44138a6" x="47.103906" y="121.727078" style="stroke: #000000; stroke-width: 0.8"/>
      </g>
     </g>
     <g id="text_6">
      <!-- 0.3 -->
      <g transform="translate(24.200781 125.525907) scale(0.1 -0.1)">
       <defs>
        <path id="DejaVuSans-16" d="M 2597 2516 
Q 3050 2419 3304 2112 
Q 3559 1806 3559 1356 
Q 3559 666 3084 287 
Q 2609 -91 1734 -91 
Q 1441 -91 1130 -33 
Q 819 25 488 141 
L 488 750 
Q 750 597 1062 519 
Q 1375 441 1716 441 
Q 2309 441 2620 675 
Q 2931 909 2931 1356 
Q 2931 1769 2642 2001 
Q 2353 2234 1838 2234 
L 1294 2234 
L 1294 2753 
L 1863 2753 
Q 2328 2753 2575 2939 
Q 2822 3125 2822 3475 
Q 2822 3834 2567 4026 
Q 2313 4219 1838 4219 
Q 1578 4219 1281 4162 
Q 984 4106 628 3988 
L 628 4550 
Q 988 4650 1302 4700 
Q 1616 4750 1894 4750 
Q 2613 4750 3031 4423 
Q 3450 4097 3450 3541 
Q 3450 3153 3228 2886 
Q 3006 2619 2597 2516 
z
" transform="scale(0.015625)"/>
       </defs>
       <use xlink:href="#DejaVuSans-13"/>
       <use xlink:href="#DejaVuSans-11" transform="translate(63.625 0)"/>
       <use xlink:href="#DejaVuSans-16" transform="translate(95.40625 0)"/>
      </g>
     </g>
    </g>
    <g id="ytick_5">
     <g id="line2d_11">
      <path d="M 47.103906 95.775599 
L 304.322255 95.775599 
" clip-path="url(#pbbfd309a0f)" style="fill: none; stroke: #d9d9d9; stroke-width: 0.7; stroke-linecap: square"/>
     </g>
     <g id="line2d_12">
      <g>
       <use xlink:href="#md4b44138a6" x="47.103906" y="95.775599" style="stroke: #000000; stroke-width: 0.8"/>
      </g>
     </g>
     <g id="text_7">
      <!-- 0.4 -->
      <g transform="translate(24.200781 99.574427) scale(0.1 -0.1)">
       <defs>
        <path id="DejaVuSans-17" d="M 2419 4116 
L 825 1625 
L 2419 1625 
L 2419 4116 
z
M 2253 4666 
L 3047 4666 
L 3047 1625 
L 3713 1625 
L 3713 1100 
L 3047 1100 
L 3047 0 
L 2419 0 
L 2419 1100 
L 313 1100 
L 313 1709 
L 2253 4666 
z
" transform="scale(0.015625)"/>
       </defs>
       <use xlink:href="#DejaVuSans-13"/>
       <use xlink:href="#DejaVuSans-11" transform="translate(63.625 0)"/>
       <use xlink:href="#DejaVuSans-17" transform="translate(95.40625 0)"/>
      </g>
     </g>
    </g>
    <g id="ytick_6">
     <g id="line2d_13">
      <path d="M 47.103906 69.824119 
L 304.322255 69.824119 
" clip-path="url(#pbbfd309a0f)" style="fill: none; stroke: #d9d9d9; stroke-width: 0.7; stroke-linecap: square"/>
     </g>
     <g id="line2d_14">
      <g>
       <use xlink:href="#md4b44138a6" x="47.103906" y="69.824119" style="stroke: #000000; stroke-width: 0.8"/>
      </g>
     </g>
     <g id="text_8">
      <!-- 0.5 -->
      <g transform="translate(24.200781 73.622947) scale(0.1 -0.1)">
       <defs>
        <path id="DejaVuSans-18" d="M 691 4666 
L 3169 4666 
L 3169 4134 
L 1269 4134 
L 1269 2991 
Q 1406 3038 1543 3061 
Q 1681 3084 1819 3084 
Q 2600 3084 3056 2656 
Q 3513 2228 3513 1497 
Q 3513 744 3044 326 
Q 2575 -91 1722 -91 
Q 1428 -91 1123 -41 
Q 819 9 494 109 
L 494 744 
Q 775 591 1075 516 
Q 1375 441 1709 441 
Q 2250 441 2565 725 
Q 2881 1009 2881 1497 
Q 2881 1984 2565 2268 
Q 2250 2553 1709 2553 
Q 1456 2553 1204 2497 
Q 953 2441 691 2322 
L 691 4666 
z
" transform="scale(0.015625)"/>
       </defs>
       <use xlink:href="#DejaVuSans-13"/>
       <use xlink:href="#DejaVuSans-11" transform="translate(63.625 0)"/>
       <use xlink:href="#DejaVuSans-18" transform="translate(95.40625 0)"/>
      </g>
     </g>
    </g>
    <g id="ytick_7">
     <g id="line2d_15">
      <path d="M 47.103906 43.87264 
L 304.322255 43.87264 
" clip-path="url(#pbbfd309a0f)" style="fill: none; stroke: #d9d9d9; stroke-width: 0.7; stroke-linecap: square"/>
     </g>
     <g id="line2d_16">
      <g>
       <use xlink:href="#md4b44138a6" x="47.103906" y="43.87264" style="stroke: #000000; stroke-width: 0.8"/>
      </g>
     </g>
     <g id="text_9">
      <!-- 0.6 -->
      <g transform="translate(24.200781 47.671468) scale(0.1 -0.1)">
       <defs>
        <path id="DejaVuSans-19" d="M 2113 2584 
Q 1688 2584 1439 2293 
Q 1191 2003 1191 1497 
Q 1191 994 1439 701 
Q 1688 409 2113 409 
Q 2538 409 2786 701 
Q 3034 994 3034 1497 
Q 3034 2003 2786 2293 
Q 2538 2584 2113 2584 
z
M 3366 4563 
L 3366 3988 
Q 3128 4100 2886 4159 
Q 2644 4219 2406 4219 
Q 1781 4219 1451 3797 
Q 1122 3375 1075 2522 
Q 1259 2794 1537 2939 
Q 1816 3084 2150 3084 
Q 2853 3084 3261 2657 
Q 3669 2231 3669 1497 
Q 3669 778 3244 343 
Q 2819 -91 2113 -91 
Q 1303 -91 875 529 
Q 447 1150 447 2328 
Q 447 3434 972 4092 
Q 1497 4750 2381 4750 
Q 2619 4750 2861 4703 
Q 3103 4656 3366 4563 
z
" transform="scale(0.015625)"/>
       </defs>
       <use xlink:href="#DejaVuSans-13"/>
       <use xlink:href="#DejaVuSans-11" transform="translate(63.625 0)"/>
       <use xlink:href="#DejaVuSans-19" transform="translate(95.40625 0)"/>
      </g>
     </g>
    </g>
    <g id="text_10">
     <!-- Recall rate -->
     <g transform="translate(14.798438 145.795212) rotate(-90) scale(0.1 -0.1)">
      <defs>
       <path id="DejaVuSans-35" d="M 2841 2188 
Q 3044 2119 3236 1894 
Q 3428 1669 3622 1275 
L 4263 0 
L 3584 0 
L 2988 1197 
Q 2756 1666 2539 1819 
Q 2322 1972 1947 1972 
L 1259 1972 
L 1259 0 
L 628 0 
L 628 4666 
L 2053 4666 
Q 2853 4666 3247 4331 
Q 3641 3997 3641 3322 
Q 3641 2881 3436 2590 
Q 3231 2300 2841 2188 
z
M 1259 4147 
L 1259 2491 
L 2053 2491 
Q 2509 2491 2742 2702 
Q 2975 2913 2975 3322 
Q 2975 3731 2742 3939 
Q 2509 4147 2053 4147 
L 1259 4147 
z
" transform="scale(0.015625)"/>
       <path id="DejaVuSans-46" d="M 3122 3366 
L 3122 2828 
Q 2878 2963 2633 3030 
Q 2388 3097 2138 3097 
Q 1578 3097 1268 2742 
Q 959 2388 959 1747 
Q 959 1106 1268 751 
Q 1578 397 2138 397 
Q 2388 397 2633 464 
Q 2878 531 3122 666 
L 3122 134 
Q 2881 22 2623 -34 
Q 2366 -91 2075 -91 
Q 1284 -91 818 406 
Q 353 903 353 1747 
Q 353 2603 823 3093 
Q 1294 3584 2113 3584 
Q 2378 3584 2631 3529 
Q 2884 3475 3122 3366 
z
" transform="scale(0.015625)"/>
       <path id="DejaVuSans-3" transform="scale(0.015625)"/>
      </defs>
      <use xlink:href="#DejaVuSans-35"/>
      <use xlink:href="#DejaVuSans-48" transform="translate(65 0)"/>
      <use xlink:href="#DejaVuSans-46" transform="translate(126.53125 0)"/>
      <use xlink:href="#DejaVuSans-44" transform="translate(181.515625 0)"/>
      <use xlink:href="#DejaVuSans-4f" transform="translate(242.796875 0)"/>
      <use xlink:href="#DejaVuSans-4f" transform="translate(270.578125 0)"/>
      <use xlink:href="#DejaVuSans-3" transform="translate(298.359375 0)"/>
      <use xlink:href="#DejaVuSans-55" transform="translate(330.140625 0)"/>
      <use xlink:href="#DejaVuSans-44" transform="translate(371.25 0)"/>
      <use xlink:href="#DejaVuSans-57" transform="translate(432.53125 0)"/>
      <use xlink:href="#DejaVuSans-48" transform="translate(471.734375 0)"/>
     </g>
    </g>
   </g>
   <g id="line2d_17">
    <path d="M 115.345509 49.387105 
L 115.345509 47.570502 
L 236.080652 47.570502 
L 236.080652 49.387105 
" style="fill: none; stroke: #333333; stroke-width: 0.9; stroke-linecap: square"/>
   </g>
   <g id="patch_3">
    <path d="M 47.103906 199.581517 
L 47.103906 38.682344 
" style="fill: none; stroke: #000000; stroke-linejoin: miter; stroke-linecap: square"/>
   </g>
   <g id="patch_4">
    <path d="M 47.103906 199.581517 
L 304.322255 199.581517 
" style="fill: none; stroke: #000000; stroke-linejoin: miter; stroke-linecap: square"/>
   </g>
   <g id="patch_5">
    <path d="M 74.663015 199.581517 
L 156.028003 199.581517 
L 156.028003 61.463757 
L 74.663015 61.463757 
z
" clip-path="url(#pbbfd309a0f)" style="fill: #ed706b; stroke: #333333; stroke-width: 0.8; stroke-linejoin: miter"/>
   </g>
   <g id="patch_6">
    <path d="M 195.398158 199.581517 
L 276.763146 199.581517 
L 276.763146 93.5969 
L 195.398158 93.5969 
z
" clip-path="url(#pbbfd309a0f)" style="fill: #666666; stroke: #333333; stroke-width: 0.8; stroke-linejoin: miter"/>
   </g>
   <g id="text_11">
    <!-- A -->
    <g transform="translate(16.237704 33.145809) scale(0.13 -0.13)">
     <defs>
      <path id="DejaVuSans-Bold-24" d="M 3419 850 
L 1538 850 
L 1241 0 
L 31 0 
L 1759 4666 
L 3194 4666 
L 4922 0 
L 3713 0 
L 3419 850 
z
M 1838 1716 
L 3116 1716 
L 2478 3572 
L 1838 1716 
z
" transform="scale(0.015625)"/>
     </defs>
     <use xlink:href="#DejaVuSans-Bold-24"/>
    </g>
   </g>
   <g id="text_12">
    <!-- $\Delta=0.12$ -->
    <g style="fill: #333333" transform="translate(157.083081 43.851304) scale(0.09 -0.09)">
     <defs>
      <path id="DejaVuSans-329" d="M 2188 4044 
L 906 525 
L 3472 525 
L 2188 4044 
z
M 50 0 
L 1831 4666 
L 2547 4666 
L 4325 0 
L 50 0 
z
" transform="scale(0.015625)"/>
      <path id="DejaVuSans-20" d="M 678 2906 
L 4684 2906 
L 4684 2381 
L 678 2381 
L 678 2906 
z
M 678 1631 
L 4684 1631 
L 4684 1100 
L 678 1100 
L 678 1631 
z
" transform="scale(0.015625)"/>
     </defs>
     <use xlink:href="#DejaVuSans-329" transform="translate(0 0.78125)"/>
     <use xlink:href="#DejaVuSans-20" transform="translate(87.890625 0.78125)"/>
     <use xlink:href="#DejaVuSans-13" transform="translate(191.162109 0.78125)"/>
     <use xlink:href="#DejaVuSans-11" transform="translate(254.785156 0.78125)"/>
     <use xlink:href="#DejaVuSans-14" transform="translate(286.572266 0.78125)"/>
     <use xlink:href="#DejaVuSans-15" transform="translate(350.195312 0.78125)"/>
    </g>
   </g>
   <g id="text_13">
    <!-- Observed data -->
    <g transform="translate(136.959057 28.682344) scale(0.105 -0.105)">
     <defs>
      <path id="DejaVuSans-32" d="M 2522 4238 
Q 1834 4238 1429 3725 
Q 1025 3213 1025 2328 
Q 1025 1447 1429 934 
Q 1834 422 2522 422 
Q 3209 422 3611 934 
Q 4013 1447 4013 2328 
Q 4013 3213 3611 3725 
Q 3209 4238 2522 4238 
z
M 2522 4750 
Q 3503 4750 4090 4092 
Q 4678 3434 4678 2328 
Q 4678 1225 4090 567 
Q 3503 -91 2522 -91 
Q 1538 -91 948 565 
Q 359 1222 359 2328 
Q 359 3434 948 4092 
Q 1538 4750 2522 4750 
z
" transform="scale(0.015625)"/>
      <path id="DejaVuSans-45" d="M 3116 1747 
Q 3116 2381 2855 2742 
Q 2594 3103 2138 3103 
Q 1681 3103 1420 2742 
Q 1159 2381 1159 1747 
Q 1159 1113 1420 752 
Q 1681 391 2138 391 
Q 2594 391 2855 752 
Q 3116 1113 3116 1747 
z
M 1159 2969 
Q 1341 3281 1617 3432 
Q 1894 3584 2278 3584 
Q 2916 3584 3314 3078 
Q 3713 2572 3713 1747 
Q 3713 922 3314 415 
Q 2916 -91 2278 -91 
Q 1894 -91 1617 61 
Q 1341 213 1159 525 
L 1159 0 
L 581 0 
L 581 4863 
L 1159 4863 
L 1159 2969 
z
" transform="scale(0.015625)"/>
      <path id="DejaVuSans-56" d="M 2834 3397 
L 2834 2853 
Q 2591 2978 2328 3040 
Q 2066 3103 1784 3103 
Q 1356 3103 1142 2972 
Q 928 2841 928 2578 
Q 928 2378 1081 2264 
Q 1234 2150 1697 2047 
L 1894 2003 
Q 2506 1872 2764 1633 
Q 3022 1394 3022 966 
Q 3022 478 2636 193 
Q 2250 -91 1575 -91 
Q 1294 -91 989 -36 
Q 684 19 347 128 
L 347 722 
Q 666 556 975 473 
Q 1284 391 1588 391 
Q 1994 391 2212 530 
Q 2431 669 2431 922 
Q 2431 1156 2273 1281 
Q 2116 1406 1581 1522 
L 1381 1569 
Q 847 1681 609 1914 
Q 372 2147 372 2553 
Q 372 3047 722 3315 
Q 1072 3584 1716 3584 
Q 2034 3584 2315 3537 
Q 2597 3491 2834 3397 
z
" transform="scale(0.015625)"/>
      <path id="DejaVuSans-47" d="M 2906 2969 
L 2906 4863 
L 3481 4863 
L 3481 0 
L 2906 0 
L 2906 525 
Q 2725 213 2448 61 
Q 2172 -91 1784 -91 
Q 1150 -91 751 415 
Q 353 922 353 1747 
Q 353 2572 751 3078 
Q 1150 3584 1784 3584 
Q 2172 3584 2448 3432 
Q 2725 3281 2906 2969 
z
M 947 1747 
Q 947 1113 1208 752 
Q 1469 391 1925 391 
Q 2381 391 2643 752 
Q 2906 1113 2906 1747 
Q 2906 2381 2643 2742 
Q 2381 3103 1925 3103 
Q 1469 3103 1208 2742 
Q 947 2381 947 1747 
z
" transform="scale(0.015625)"/>
     </defs>
     <use xlink:href="#DejaVuSans-32"/>
     <use xlink:href="#DejaVuSans-45" transform="translate(78.71875 0)"/>
     <use xlink:href="#DejaVuSans-56" transform="translate(142.203125 0)"/>
     <use xlink:href="#DejaVuSans-48" transform="translate(194.296875 0)"/>
     <use xlink:href="#DejaVuSans-55" transform="translate(255.828125 0)"/>
     <use xlink:href="#DejaVuSans-59" transform="translate(296.9375 0)"/>
     <use xlink:href="#DejaVuSans-48" transform="translate(356.125 0)"/>
     <use xlink:href="#DejaVuSans-47" transform="translate(417.65625 0)"/>
     <use xlink:href="#DejaVuSans-3" transform="translate(481.140625 0)"/>
     <use xlink:href="#DejaVuSans-47" transform="translate(512.921875 0)"/>
     <use xlink:href="#DejaVuSans-44" transform="translate(576.40625 0)"/>
     <use xlink:href="#DejaVuSans-57" transform="translate(637.6875 0)"/>
     <use xlink:href="#DejaVuSans-44" transform="translate(676.890625 0)"/>
    </g>
   </g>
   <g id="LineCollection_1">
    <path d="M 115.345509 69.709089 
L 115.345509 53.279827 
" clip-path="url(#pbbfd309a0f)" style="fill: none; stroke: #222222; stroke-width: 1.1"/>
    <path d="M 236.080652 104.524149 
L 236.080652 82.560707 
" clip-path="url(#pbbfd309a0f)" style="fill: none; stroke: #222222; stroke-width: 1.1"/>
   </g>
   <g id="line2d_18">
    <defs>
     <path id="m76e1ec6d67" d="M 3 0 
L -3 -0 
" style="stroke: #222222"/>
    </defs>
    <g clip-path="url(#pbbfd309a0f)">
     <use xlink:href="#m76e1ec6d67" x="115.345509" y="69.709089" style="fill: #1f77b4; stroke: #222222"/>
     <use xlink:href="#m76e1ec6d67" x="236.080652" y="104.524149" style="fill: #1f77b4; stroke: #222222"/>
    </g>
   </g>
   <g id="line2d_19">
    <g clip-path="url(#pbbfd309a0f)">
     <use xlink:href="#m76e1ec6d67" x="115.345509" y="53.279827" style="fill: #1f77b4; stroke: #222222"/>
     <use xlink:href="#m76e1ec6d67" x="236.080652" y="82.560707" style="fill: #1f77b4; stroke: #222222"/>
    </g>
   </g>
  </g>
  <g id="axes_2">
   <g id="patch_7">
    <path d="M 350.621558 199.581517 
L 607.839906 199.581517 
L 607.839906 38.682344 
L 350.621558 38.682344 
z
" style="fill: #ffffff"/>
   </g>
   <g id="matplotlib.axis_3">
    <g id="xtick_3">
     <g id="line2d_20"/>
     <g id="text_14">
      <!-- Negative -->
      <g transform="translate(396.422535 211.179955) scale(0.1 -0.1)">
       <use xlink:href="#DejaVuSans-31"/>
       <use xlink:href="#DejaVuSans-48" transform="translate(74.8125 0)"/>
       <use xlink:href="#DejaVuSans-4a" transform="translate(136.34375 0)"/>
       <use xlink:href="#DejaVuSans-44" transform="translate(199.828125 0)"/>
       <use xlink:href="#DejaVuSans-57" transform="translate(261.109375 0)"/>
       <use xlink:href="#DejaVuSans-4c" transform="translate(300.3125 0)"/>
       <use xlink:href="#DejaVuSans-59" transform="translate(328.09375 0)"/>
       <use xlink:href="#DejaVuSans-48" transform="translate(387.28125 0)"/>
      </g>
     </g>
    </g>
    <g id="xtick_4">
     <g id="line2d_21"/>
     <g id="text_15">
      <!-- Neutral -->
      <g transform="translate(521.143616 211.179955) scale(0.1 -0.1)">
       <use xlink:href="#DejaVuSans-31"/>
       <use xlink:href="#DejaVuSans-48" transform="translate(74.8125 0)"/>
       <use xlink:href="#DejaVuSans-58" transform="translate(136.34375 0)"/>
       <use xlink:href="#DejaVuSans-57" transform="translate(199.71875 0)"/>
       <use xlink:href="#DejaVuSans-55" transform="translate(238.921875 0)"/>
       <use xlink:href="#DejaVuSans-44" transform="translate(280.03125 0)"/>
       <use xlink:href="#DejaVuSans-4f" transform="translate(341.3125 0)"/>
      </g>
     </g>
    </g>
   </g>
   <g id="matplotlib.axis_4">
    <g id="ytick_8">
     <g id="line2d_22">
      <path d="M 350.621558 199.581517 
L 607.839906 199.581517 
" clip-path="url(#p3a67f06783)" style="fill: none; stroke: #d9d9d9; stroke-width: 0.7; stroke-linecap: square"/>
     </g>
     <g id="line2d_23">
      <g>
       <use xlink:href="#md4b44138a6" x="350.621558" y="199.581517" style="stroke: #000000; stroke-width: 0.8"/>
      </g>
     </g>
    </g>
    <g id="ytick_9">
     <g id="line2d_24">
      <path d="M 350.621558 173.630038 
L 607.839906 173.630038 
" clip-path="url(#p3a67f06783)" style="fill: none; stroke: #d9d9d9; stroke-width: 0.7; stroke-linecap: square"/>
     </g>
     <g id="line2d_25">
      <g>
       <use xlink:href="#md4b44138a6" x="350.621558" y="173.630038" style="stroke: #000000; stroke-width: 0.8"/>
      </g>
     </g>
    </g>
    <g id="ytick_10">
     <g id="line2d_26">
      <path d="M 350.621558 147.678558 
L 607.839906 147.678558 
" clip-path="url(#p3a67f06783)" style="fill: none; stroke: #d9d9d9; stroke-width: 0.7; stroke-linecap: square"/>
     </g>
     <g id="line2d_27">
      <g>
       <use xlink:href="#md4b44138a6" x="350.621558" y="147.678558" style="stroke: #000000; stroke-width: 0.8"/>
      </g>
     </g>
    </g>
    <g id="ytick_11">
     <g id="line2d_28">
      <path d="M 350.621558 121.727078 
L 607.839906 121.727078 
" clip-path="url(#p3a67f06783)" style="fill: none; stroke: #d9d9d9; stroke-width: 0.7; stroke-linecap: square"/>
     </g>
     <g id="line2d_29">
      <g>
       <use xlink:href="#md4b44138a6" x="350.621558" y="121.727078" style="stroke: #000000; stroke-width: 0.8"/>
      </g>
     </g>
    </g>
    <g id="ytick_12">
     <g id="line2d_30">
      <path d="M 350.621558 95.775599 
L 607.839906 95.775599 
" clip-path="url(#p3a67f06783)" style="fill: none; stroke: #d9d9d9; stroke-width: 0.7; stroke-linecap: square"/>
     </g>
     <g id="line2d_31">
      <g>
       <use xlink:href="#md4b44138a6" x="350.621558" y="95.775599" style="stroke: #000000; stroke-width: 0.8"/>
      </g>
     </g>
    </g>
    <g id="ytick_13">
     <g id="line2d_32">
      <path d="M 350.621558 69.824119 
L 607.839906 69.824119 
" clip-path="url(#p3a67f06783)" style="fill: none; stroke: #d9d9d9; stroke-width: 0.7; stroke-linecap: square"/>
     </g>
     <g id="line2d_33">
      <g>
       <use xlink:href="#md4b44138a6" x="350.621558" y="69.824119" style="stroke: #000000; stroke-width: 0.8"/>
      </g>
     </g>
    </g>
    <g id="ytick_14">
     <g id="line2d_34">
      <path d="M 350.621558 43.87264 
L 607.839906 43.87264 
" clip-path="url(#p3a67f06783)" style="fill: none; stroke: #d9d9d9; stroke-width: 0.7; stroke-linecap: square"/>
     </g>
     <g id="line2d_35">
      <g>
       <use xlink:href="#md4b44138a6" x="350.621558" y="43.87264" style="stroke: #000000; stroke-width: 0.8"/>
      </g>
     </g>
    </g>
   </g>
   <g id="line2d_36">
    <path d="M 418.86316 72.442172 
L 418.86316 70.625569 
L 539.598304 70.625569 
L 539.598304 72.442172 
" style="fill: none; stroke: #333333; stroke-width: 0.9; stroke-linecap: square"/>
   </g>
   <g id="patch_8">
    <path d="M 350.621558 199.581517 
L 350.621558 38.682344 
" style="fill: none; stroke: #000000; stroke-linejoin: miter; stroke-linecap: square"/>
   </g>
   <g id="patch_9">
    <path d="M 350.621558 199.581517 
L 607.839906 199.581517 
" style="fill: none; stroke: #000000; stroke-linejoin: miter; stroke-linecap: square"/>
   </g>
   <g id="patch_10">
    <path d="M 378.180666 199.581517 
L 459.545654 199.581517 
L 459.545654 79.609178 
L 378.180666 79.609178 
z
" clip-path="url(#p3a67f06783)" style="fill: #ed706b; stroke: #333333; stroke-width: 0.8; stroke-linejoin: miter"/>
   </g>
   <g id="patch_11">
    <path d="M 498.91581 199.581517 
L 580.280797 199.581517 
L 580.280797 84.607498 
L 498.91581 84.607498 
z
" clip-path="url(#p3a67f06783)" style="fill: #666666; stroke: #333333; stroke-width: 0.8; stroke-linejoin: miter"/>
   </g>
   <g id="text_16">
    <!-- B -->
    <g transform="translate(319.755356 33.145809) scale(0.13 -0.13)">
     <defs>
      <path id="DejaVuSans-Bold-25" d="M 2456 2859 
Q 2741 2859 2887 2984 
Q 3034 3109 3034 3353 
Q 3034 3594 2887 3720 
Q 2741 3847 2456 3847 
L 1791 3847 
L 1791 2859 
L 2456 2859 
z
M 2497 819 
Q 2859 819 3042 972 
Q 3225 1125 3225 1434 
Q 3225 1738 3044 1889 
Q 2863 2041 2497 2041 
L 1791 2041 
L 1791 819 
L 2497 819 
z
M 3616 2497 
Q 4003 2384 4215 2081 
Q 4428 1778 4428 1338 
Q 4428 663 3972 331 
Q 3516 0 2584 0 
L 588 0 
L 588 4666 
L 2394 4666 
Q 3366 4666 3802 4372 
Q 4238 4078 4238 3431 
Q 4238 3091 4078 2852 
Q 3919 2613 3616 2497 
z
" transform="scale(0.015625)"/>
     </defs>
     <use xlink:href="#DejaVuSans-Bold-25"/>
    </g>
   </g>
   <g id="text_17">
    <!-- $\Delta=0.02$ -->
    <g style="fill: #333333" transform="translate(460.600732 66.906371) scale(0.09 -0.09)">
     <use xlink:href="#DejaVuSans-329" transform="translate(0 0.78125)"/>
     <use xlink:href="#DejaVuSans-20" transform="translate(87.890625 0.78125)"/>
     <use xlink:href="#DejaVuSans-13" transform="translate(191.162109 0.78125)"/>
     <use xlink:href="#DejaVuSans-11" transform="translate(254.785156 0.78125)"/>
     <use xlink:href="#DejaVuSans-13" transform="translate(286.572266 0.78125)"/>
     <use xlink:href="#DejaVuSans-15" transform="translate(350.195312 0.78125)"/>
    </g>
   </g>
   <g id="text_18">
    <!-- LPP-based learning boost -->
    <g transform="translate(413.041357 16.292344) scale(0.105 -0.105)">
     <defs>
      <path id="DejaVuSans-2f" d="M 628 4666 
L 1259 4666 
L 1259 531 
L 3531 531 
L 3531 0 
L 628 0 
L 628 4666 
z
" transform="scale(0.015625)"/>
      <path id="DejaVuSans-33" d="M 1259 4147 
L 1259 2394 
L 2053 2394 
Q 2494 2394 2734 2622 
Q 2975 2850 2975 3272 
Q 2975 3691 2734 3919 
Q 2494 4147 2053 4147 
L 1259 4147 
z
M 628 4666 
L 2053 4666 
Q 2838 4666 3239 4311 
Q 3641 3956 3641 3272 
Q 3641 2581 3239 2228 
Q 2838 1875 2053 1875 
L 1259 1875 
L 1259 0 
L 628 0 
L 628 4666 
z
" transform="scale(0.015625)"/>
      <path id="DejaVuSans-10" d="M 313 2009 
L 1997 2009 
L 1997 1497 
L 313 1497 
L 313 2009 
z
" transform="scale(0.015625)"/>
      <path id="DejaVuSans-51" d="M 3513 2113 
L 3513 0 
L 2938 0 
L 2938 2094 
Q 2938 2591 2744 2837 
Q 2550 3084 2163 3084 
Q 1697 3084 1428 2787 
Q 1159 2491 1159 1978 
L 1159 0 
L 581 0 
L 581 3500 
L 1159 3500 
L 1159 2956 
Q 1366 3272 1645 3428 
Q 1925 3584 2291 3584 
Q 2894 3584 3203 3211 
Q 3513 2838 3513 2113 
z
" transform="scale(0.015625)"/>
      <path id="DejaVuSans-52" d="M 1959 3097 
Q 1497 3097 1228 2736 
Q 959 2375 959 1747 
Q 959 1119 1226 758 
Q 1494 397 1959 397 
Q 2419 397 2687 759 
Q 2956 1122 2956 1747 
Q 2956 2369 2687 2733 
Q 2419 3097 1959 3097 
z
M 1959 3584 
Q 2709 3584 3137 3096 
Q 3566 2609 3566 1747 
Q 3566 888 3137 398 
Q 2709 -91 1959 -91 
Q 1206 -91 779 398 
Q 353 888 353 1747 
Q 353 2609 779 3096 
Q 1206 3584 1959 3584 
z
" transform="scale(0.015625)"/>
     </defs>
     <use xlink:href="#DejaVuSans-2f"/>
     <use xlink:href="#DejaVuSans-33" transform="translate(55.71875 0)"/>
     <use xlink:href="#DejaVuSans-33" transform="translate(116.015625 0)"/>
     <use xlink:href="#DejaVuSans-10" transform="translate(174.109375 0)"/>
     <use xlink:href="#DejaVuSans-45" transform="translate(210.1875 0)"/>
     <use xlink:href="#DejaVuSans-44" transform="translate(273.671875 0)"/>
     <use xlink:href="#DejaVuSans-56" transform="translate(334.953125 0)"/>
     <use xlink:href="#DejaVuSans-48" transform="translate(387.046875 0)"/>
     <use xlink:href="#DejaVuSans-47" transform="translate(448.578125 0)"/>
     <use xlink:href="#DejaVuSans-3" transform="translate(512.0625 0)"/>
     <use xlink:href="#DejaVuSans-4f" transform="translate(543.84375 0)"/>
     <use xlink:href="#DejaVuSans-48" transform="translate(571.625 0)"/>
     <use xlink:href="#DejaVuSans-44" transform="translate(633.15625 0)"/>
     <use xlink:href="#DejaVuSans-55" transform="translate(694.4375 0)"/>
     <use xlink:href="#DejaVuSans-51" transform="translate(733.796875 0)"/>
     <use xlink:href="#DejaVuSans-4c" transform="translate(797.171875 0)"/>
     <use xlink:href="#DejaVuSans-51" transform="translate(824.953125 0)"/>
     <use xlink:href="#DejaVuSans-4a" transform="translate(888.328125 0)"/>
     <use xlink:href="#DejaVuSans-3" transform="translate(951.8125 0)"/>
     <use xlink:href="#DejaVuSans-45" transform="translate(983.59375 0)"/>
     <use xlink:href="#DejaVuSans-52" transform="translate(1047.078125 0)"/>
     <use xlink:href="#DejaVuSans-52" transform="translate(1108.265625 0)"/>
     <use xlink:href="#DejaVuSans-56" transform="translate(1169.453125 0)"/>
     <use xlink:href="#DejaVuSans-57" transform="translate(1221.546875 0)"/>
    </g>
    <!-- for negative items only -->
    <g transform="translate(418.343037 28.682344) scale(0.105 -0.105)">
     <defs>
      <path id="DejaVuSans-49" d="M 2375 4863 
L 2375 4384 
L 1825 4384 
Q 1516 4384 1395 4259 
Q 1275 4134 1275 3809 
L 1275 3500 
L 2222 3500 
L 2222 3053 
L 1275 3053 
L 1275 0 
L 697 0 
L 697 3053 
L 147 3053 
L 147 3500 
L 697 3500 
L 697 3744 
Q 697 4328 969 4595 
Q 1241 4863 1831 4863 
L 2375 4863 
z
" transform="scale(0.015625)"/>
      <path id="DejaVuSans-50" d="M 3328 2828 
Q 3544 3216 3844 3400 
Q 4144 3584 4550 3584 
Q 5097 3584 5394 3201 
Q 5691 2819 5691 2113 
L 5691 0 
L 5113 0 
L 5113 2094 
Q 5113 2597 4934 2840 
Q 4756 3084 4391 3084 
Q 3944 3084 3684 2787 
Q 3425 2491 3425 1978 
L 3425 0 
L 2847 0 
L 2847 2094 
Q 2847 2600 2669 2842 
Q 2491 3084 2119 3084 
Q 1678 3084 1418 2786 
Q 1159 2488 1159 1978 
L 1159 0 
L 581 0 
L 581 3500 
L 1159 3500 
L 1159 2956 
Q 1356 3278 1631 3431 
Q 1906 3584 2284 3584 
Q 2666 3584 2933 3390 
Q 3200 3197 3328 2828 
z
" transform="scale(0.015625)"/>
      <path id="DejaVuSans-5c" d="M 2059 -325 
Q 1816 -950 1584 -1140 
Q 1353 -1331 966 -1331 
L 506 -1331 
L 506 -850 
L 844 -850 
Q 1081 -850 1212 -737 
Q 1344 -625 1503 -206 
L 1606 56 
L 191 3500 
L 800 3500 
L 1894 763 
L 2988 3500 
L 3597 3500 
L 2059 -325 
z
" transform="scale(0.015625)"/>
     </defs>
     <use xlink:href="#DejaVuSans-49"/>
     <use xlink:href="#DejaVuSans-52" transform="translate(35.203125 0)"/>
     <use xlink:href="#DejaVuSans-55" transform="translate(96.390625 0)"/>
     <use xlink:href="#DejaVuSans-3" transform="translate(137.5 0)"/>
     <use xlink:href="#DejaVuSans-51" transform="translate(169.28125 0)"/>
     <use xlink:href="#DejaVuSans-48" transform="translate(232.65625 0)"/>
     <use xlink:href="#DejaVuSans-4a" transform="translate(294.1875 0)"/>
     <use xlink:href="#DejaVuSans-44" transform="translate(357.671875 0)"/>
     <use xlink:href="#DejaVuSans-57" transform="translate(418.953125 0)"/>
     <use xlink:href="#DejaVuSans-4c" transform="translate(458.15625 0)"/>
     <use xlink:href="#DejaVuSans-59" transform="translate(485.9375 0)"/>
     <use xlink:href="#DejaVuSans-48" transform="translate(545.125 0)"/>
     <use xlink:href="#DejaVuSans-3" transform="translate(606.65625 0)"/>
     <use xlink:href="#DejaVuSans-4c" transform="translate(638.4375 0)"/>
     <use xlink:href="#DejaVuSans-57" transform="translate(666.21875 0)"/>
     <use xlink:href="#DejaVuSans-48" transform="translate(705.421875 0)"/>
     <use xlink:href="#DejaVuSans-50" transform="translate(766.953125 0)"/>
     <use xlink:href="#DejaVuSans-56" transform="translate(864.359375 0)"/>
     <use xlink:href="#DejaVuSans-3" transform="translate(916.453125 0)"/>
     <use xlink:href="#DejaVuSans-52" transform="translate(948.234375 0)"/>
     <use xlink:href="#DejaVuSans-51" transform="translate(1009.421875 0)"/>
     <use xlink:href="#DejaVuSans-4f" transform="translate(1072.796875 0)"/>
     <use xlink:href="#DejaVuSans-5c" transform="translate(1100.578125 0)"/>
    </g>
   </g>
   <g id="LineCollection_2">
    <path d="M 418.86316 83.223603 
L 418.86316 76.334894 
" clip-path="url(#p3a67f06783)" style="fill: none; stroke: #222222; stroke-width: 1.1"/>
    <path d="M 539.598304 86.229608 
L 539.598304 82.81688 
" clip-path="url(#p3a67f06783)" style="fill: none; stroke: #222222; stroke-width: 1.1"/>
   </g>
   <g id="line2d_37">
    <g clip-path="url(#p3a67f06783)">
     <use xlink:href="#m76e1ec6d67" x="418.86316" y="83.223603" style="fill: #1f77b4; stroke: #222222"/>
     <use xlink:href="#m76e1ec6d67" x="539.598304" y="86.229608" style="fill: #1f77b4; stroke: #222222"/>
    </g>
   </g>
   <g id="line2d_38">
    <g clip-path="url(#p3a67f06783)">
     <use xlink:href="#m76e1ec6d67" x="418.86316" y="76.334894" style="fill: #1f77b4; stroke: #222222"/>
     <use xlink:href="#m76e1ec6d67" x="539.598304" y="82.81688" style="fill: #1f77b4; stroke: #222222"/>
    </g>
   </g>
  </g>
  <g id="axes_3">
   <g id="patch_12">
    <path d="M 47.103906 428.058344 
L 304.322255 428.058344 
L 304.322255 267.15917 
L 47.103906 267.15917 
z
" style="fill: #ffffff"/>
   </g>
   <g id="matplotlib.axis_5">
    <g id="xtick_5">
     <g id="line2d_39"/>
     <g id="text_19">
      <!-- Negative -->
      <g transform="translate(92.904884 439.656781) scale(0.1 -0.1)">
       <use xlink:href="#DejaVuSans-31"/>
       <use xlink:href="#DejaVuSans-48" transform="translate(74.8125 0)"/>
       <use xlink:href="#DejaVuSans-4a" transform="translate(136.34375 0)"/>
       <use xlink:href="#DejaVuSans-44" transform="translate(199.828125 0)"/>
       <use xlink:href="#DejaVuSans-57" transform="translate(261.109375 0)"/>
       <use xlink:href="#DejaVuSans-4c" transform="translate(300.3125 0)"/>
       <use xlink:href="#DejaVuSans-59" transform="translate(328.09375 0)"/>
       <use xlink:href="#DejaVuSans-48" transform="translate(387.28125 0)"/>
      </g>
     </g>
    </g>
    <g id="xtick_6">
     <g id="line2d_40"/>
     <g id="text_20">
      <!-- Neutral -->
      <g transform="translate(217.625965 439.656781) scale(0.1 -0.1)">
       <use xlink:href="#DejaVuSans-31"/>
       <use xlink:href="#DejaVuSans-48" transform="translate(74.8125 0)"/>
       <use xlink:href="#DejaVuSans-58" transform="translate(136.34375 0)"/>
       <use xlink:href="#DejaVuSans-57" transform="translate(199.71875 0)"/>
       <use xlink:href="#DejaVuSans-55" transform="translate(238.921875 0)"/>
       <use xlink:href="#DejaVuSans-44" transform="translate(280.03125 0)"/>
       <use xlink:href="#DejaVuSans-4f" transform="translate(341.3125 0)"/>
      </g>
     </g>
    </g>
   </g>
   <g id="matplotlib.axis_6">
    <g id="ytick_15">
     <g id="line2d_41">
      <path d="M 47.103906 428.058344 
L 304.322255 428.058344 
" clip-path="url(#p6bace90d5f)" style="fill: none; stroke: #d9d9d9; stroke-width: 0.7; stroke-linecap: square"/>
     </g>
     <g id="line2d_42">
      <g>
       <use xlink:href="#md4b44138a6" x="47.103906" y="428.058344" style="stroke: #000000; stroke-width: 0.8"/>
      </g>
     </g>
     <g id="text_21">
      <!-- 0.0 -->
      <g transform="translate(24.200781 431.857172) scale(0.1 -0.1)">
       <use xlink:href="#DejaVuSans-13"/>
       <use xlink:href="#DejaVuSans-11" transform="translate(63.625 0)"/>
       <use xlink:href="#DejaVuSans-13" transform="translate(95.40625 0)"/>
      </g>
     </g>
    </g>
    <g id="ytick_16">
     <g id="line2d_43">
      <path d="M 47.103906 402.106864 
L 304.322255 402.106864 
" clip-path="url(#p6bace90d5f)" style="fill: none; stroke: #d9d9d9; stroke-width: 0.7; stroke-linecap: square"/>
     </g>
     <g id="line2d_44">
      <g>
       <use xlink:href="#md4b44138a6" x="47.103906" y="402.106864" style="stroke: #000000; stroke-width: 0.8"/>
      </g>
     </g>
     <g id="text_22">
      <!-- 0.1 -->
      <g transform="translate(24.200781 405.905692) scale(0.1 -0.1)">
       <use xlink:href="#DejaVuSans-13"/>
       <use xlink:href="#DejaVuSans-11" transform="translate(63.625 0)"/>
       <use xlink:href="#DejaVuSans-14" transform="translate(95.40625 0)"/>
      </g>
     </g>
    </g>
    <g id="ytick_17">
     <g id="line2d_45">
      <path d="M 47.103906 376.155385 
L 304.322255 376.155385 
" clip-path="url(#p6bace90d5f)" style="fill: none; stroke: #d9d9d9; stroke-width: 0.7; stroke-linecap: square"/>
     </g>
     <g id="line2d_46">
      <g>
       <use xlink:href="#md4b44138a6" x="47.103906" y="376.155385" style="stroke: #000000; stroke-width: 0.8"/>
      </g>
     </g>
     <g id="text_23">
      <!-- 0.2 -->
      <g transform="translate(24.200781 379.954213) scale(0.1 -0.1)">
       <use xlink:href="#DejaVuSans-13"/>
       <use xlink:href="#DejaVuSans-11" transform="translate(63.625 0)"/>
       <use xlink:href="#DejaVuSans-15" transform="translate(95.40625 0)"/>
      </g>
     </g>
    </g>
    <g id="ytick_18">
     <g id="line2d_47">
      <path d="M 47.103906 350.203905 
L 304.322255 350.203905 
" clip-path="url(#p6bace90d5f)" style="fill: none; stroke: #d9d9d9; stroke-width: 0.7; stroke-linecap: square"/>
     </g>
     <g id="line2d_48">
      <g>
       <use xlink:href="#md4b44138a6" x="47.103906" y="350.203905" style="stroke: #000000; stroke-width: 0.8"/>
      </g>
     </g>
     <g id="text_24">
      <!-- 0.3 -->
      <g transform="translate(24.200781 354.002733) scale(0.1 -0.1)">
       <use xlink:href="#DejaVuSans-13"/>
       <use xlink:href="#DejaVuSans-11" transform="translate(63.625 0)"/>
       <use xlink:href="#DejaVuSans-16" transform="translate(95.40625 0)"/>
      </g>
     </g>
    </g>
    <g id="ytick_19">
     <g id="line2d_49">
      <path d="M 47.103906 324.252425 
L 304.322255 324.252425 
" clip-path="url(#p6bace90d5f)" style="fill: none; stroke: #d9d9d9; stroke-width: 0.7; stroke-linecap: square"/>
     </g>
     <g id="line2d_50">
      <g>
       <use xlink:href="#md4b44138a6" x="47.103906" y="324.252425" style="stroke: #000000; stroke-width: 0.8"/>
      </g>
     </g>
     <g id="text_25">
      <!-- 0.4 -->
      <g transform="translate(24.200781 328.051253) scale(0.1 -0.1)">
       <use xlink:href="#DejaVuSans-13"/>
       <use xlink:href="#DejaVuSans-11" transform="translate(63.625 0)"/>
       <use xlink:href="#DejaVuSans-17" transform="translate(95.40625 0)"/>
      </g>
     </g>
    </g>
    <g id="ytick_20">
     <g id="line2d_51">
      <path d="M 47.103906 298.300946 
L 304.322255 298.300946 
" clip-path="url(#p6bace90d5f)" style="fill: none; stroke: #d9d9d9; stroke-width: 0.7; stroke-linecap: square"/>
     </g>
     <g id="line2d_52">
      <g>
       <use xlink:href="#md4b44138a6" x="47.103906" y="298.300946" style="stroke: #000000; stroke-width: 0.8"/>
      </g>
     </g>
     <g id="text_26">
      <!-- 0.5 -->
      <g transform="translate(24.200781 302.099774) scale(0.1 -0.1)">
       <use xlink:href="#DejaVuSans-13"/>
       <use xlink:href="#DejaVuSans-11" transform="translate(63.625 0)"/>
       <use xlink:href="#DejaVuSans-18" transform="translate(95.40625 0)"/>
      </g>
     </g>
    </g>
    <g id="ytick_21">
     <g id="line2d_53">
      <path d="M 47.103906 272.349466 
L 304.322255 272.349466 
" clip-path="url(#p6bace90d5f)" style="fill: none; stroke: #d9d9d9; stroke-width: 0.7; stroke-linecap: square"/>
     </g>
     <g id="line2d_54">
      <g>
       <use xlink:href="#md4b44138a6" x="47.103906" y="272.349466" style="stroke: #000000; stroke-width: 0.8"/>
      </g>
     </g>
     <g id="text_27">
      <!-- 0.6 -->
      <g transform="translate(24.200781 276.148294) scale(0.1 -0.1)">
       <use xlink:href="#DejaVuSans-13"/>
       <use xlink:href="#DejaVuSans-11" transform="translate(63.625 0)"/>
       <use xlink:href="#DejaVuSans-19" transform="translate(95.40625 0)"/>
      </g>
     </g>
    </g>
    <g id="text_28">
     <!-- Recall rate -->
     <g transform="translate(14.798438 374.272038) rotate(-90) scale(0.1 -0.1)">
      <use xlink:href="#DejaVuSans-35"/>
      <use xlink:href="#DejaVuSans-48" transform="translate(65 0)"/>
      <use xlink:href="#DejaVuSans-46" transform="translate(126.53125 0)"/>
      <use xlink:href="#DejaVuSans-44" transform="translate(181.515625 0)"/>
      <use xlink:href="#DejaVuSans-4f" transform="translate(242.796875 0)"/>
      <use xlink:href="#DejaVuSans-4f" transform="translate(270.578125 0)"/>
      <use xlink:href="#DejaVuSans-3" transform="translate(298.359375 0)"/>
      <use xlink:href="#DejaVuSans-55" transform="translate(330.140625 0)"/>
      <use xlink:href="#DejaVuSans-44" transform="translate(371.25 0)"/>
      <use xlink:href="#DejaVuSans-57" transform="translate(432.53125 0)"/>
      <use xlink:href="#DejaVuSans-48" transform="translate(471.734375 0)"/>
     </g>
    </g>
   </g>
   <g id="line2d_55">
    <path d="M 115.345509 281.910628 
L 115.345509 280.094024 
L 236.080652 280.094024 
L 236.080652 281.910628 
" style="fill: none; stroke: #333333; stroke-width: 0.9; stroke-linecap: square"/>
   </g>
   <g id="patch_13">
    <path d="M 47.103906 428.058344 
L 47.103906 267.15917 
" style="fill: none; stroke: #000000; stroke-linejoin: miter; stroke-linecap: square"/>
   </g>
   <g id="patch_14">
    <path d="M 47.103906 428.058344 
L 304.322255 428.058344 
" style="fill: none; stroke: #000000; stroke-linejoin: miter; stroke-linecap: square"/>
   </g>
   <g id="patch_15">
    <path d="M 74.663015 428.058344 
L 156.028003 428.058344 
L 156.028003 289.554633 
L 74.663015 289.554633 
z
" clip-path="url(#p6bace90d5f)" style="fill: #ed706b; stroke: #333333; stroke-width: 0.8; stroke-linejoin: miter"/>
   </g>
   <g id="patch_16">
    <path d="M 195.398158 428.058344 
L 276.763146 428.058344 
L 276.763146 322.26493 
L 195.398158 322.26493 
z
" clip-path="url(#p6bace90d5f)" style="fill: #666666; stroke: #333333; stroke-width: 0.8; stroke-linejoin: miter"/>
   </g>
   <g id="text_29">
    <!-- C -->
    <g transform="translate(16.237704 261.622636) scale(0.13 -0.13)">
     <defs>
      <path id="DejaVuSans-Bold-26" d="M 4288 256 
Q 3956 84 3597 -3 
Q 3238 -91 2847 -91 
Q 1681 -91 1000 561 
Q 319 1213 319 2328 
Q 319 3447 1000 4098 
Q 1681 4750 2847 4750 
Q 3238 4750 3597 4662 
Q 3956 4575 4288 4403 
L 4288 3438 
Q 3953 3666 3628 3772 
Q 3303 3878 2944 3878 
Q 2300 3878 1931 3465 
Q 1563 3053 1563 2328 
Q 1563 1606 1931 1193 
Q 2300 781 2944 781 
Q 3303 781 3628 887 
Q 3953 994 4288 1222 
L 4288 256 
z
" transform="scale(0.015625)"/>
     </defs>
     <use xlink:href="#DejaVuSans-Bold-26"/>
    </g>
   </g>
   <g id="text_30">
    <!-- $\Delta=0.13$ -->
    <g style="fill: #333333" transform="translate(157.083081 276.374826) scale(0.09 -0.09)">
     <use xlink:href="#DejaVuSans-329" transform="translate(0 0.78125)"/>
     <use xlink:href="#DejaVuSans-20" transform="translate(87.890625 0.78125)"/>
     <use xlink:href="#DejaVuSans-13" transform="translate(191.162109 0.78125)"/>
     <use xlink:href="#DejaVuSans-11" transform="translate(254.785156 0.78125)"/>
     <use xlink:href="#DejaVuSans-14" transform="translate(286.572266 0.78125)"/>
     <use xlink:href="#DejaVuSans-16" transform="translate(350.195312 0.78125)"/>
    </g>
   </g>
   <g id="text_31">
    <!-- Emotion-based -->
    <g transform="translate(136.270815 245.786358) scale(0.105 -0.105)">
     <defs>
      <path id="DejaVuSans-28" d="M 628 4666 
L 3578 4666 
L 3578 4134 
L 1259 4134 
L 1259 2753 
L 3481 2753 
L 3481 2222 
L 1259 2222 
L 1259 531 
L 3634 531 
L 3634 0 
L 628 0 
L 628 4666 
z
" transform="scale(0.015625)"/>
     </defs>
     <use xlink:href="#DejaVuSans-28"/>
     <use xlink:href="#DejaVuSans-50" transform="translate(63.1875 0)"/>
     <use xlink:href="#DejaVuSans-52" transform="translate(160.59375 0)"/>
     <use xlink:href="#DejaVuSans-57" transform="translate(221.78125 0)"/>
     <use xlink:href="#DejaVuSans-4c" transform="translate(260.984375 0)"/>
     <use xlink:href="#DejaVuSans-52" transform="translate(288.765625 0)"/>
     <use xlink:href="#DejaVuSans-51" transform="translate(349.953125 0)"/>
     <use xlink:href="#DejaVuSans-10" transform="translate(413.328125 0)"/>
     <use xlink:href="#DejaVuSans-45" transform="translate(449.40625 0)"/>
     <use xlink:href="#DejaVuSans-44" transform="translate(512.890625 0)"/>
     <use xlink:href="#DejaVuSans-56" transform="translate(574.171875 0)"/>
     <use xlink:href="#DejaVuSans-48" transform="translate(626.265625 0)"/>
     <use xlink:href="#DejaVuSans-47" transform="translate(687.796875 0)"/>
    </g>
    <!-- learning boost -->
    <g transform="translate(138.075502 257.15917) scale(0.105 -0.105)">
     <use xlink:href="#DejaVuSans-4f"/>
     <use xlink:href="#DejaVuSans-48" transform="translate(27.78125 0)"/>
     <use xlink:href="#DejaVuSans-44" transform="translate(89.3125 0)"/>
     <use xlink:href="#DejaVuSans-55" transform="translate(150.59375 0)"/>
     <use xlink:href="#DejaVuSans-51" transform="translate(189.953125 0)"/>
     <use xlink:href="#DejaVuSans-4c" transform="translate(253.328125 0)"/>
     <use xlink:href="#DejaVuSans-51" transform="translate(281.109375 0)"/>
     <use xlink:href="#DejaVuSans-4a" transform="translate(344.484375 0)"/>
     <use xlink:href="#DejaVuSans-3" transform="translate(407.96875 0)"/>
     <use xlink:href="#DejaVuSans-45" transform="translate(439.75 0)"/>
     <use xlink:href="#DejaVuSans-52" transform="translate(503.234375 0)"/>
     <use xlink:href="#DejaVuSans-52" transform="translate(564.421875 0)"/>
     <use xlink:href="#DejaVuSans-56" transform="translate(625.609375 0)"/>
     <use xlink:href="#DejaVuSans-57" transform="translate(677.703125 0)"/>
    </g>
   </g>
   <g id="LineCollection_3">
    <path d="M 115.345509 293.035636 
L 115.345509 285.80335 
" clip-path="url(#p6bace90d5f)" style="fill: none; stroke: #222222; stroke-width: 1.1"/>
    <path d="M 236.080652 324.123349 
L 236.080652 320.540411 
" clip-path="url(#p6bace90d5f)" style="fill: none; stroke: #222222; stroke-width: 1.1"/>
   </g>
   <g id="line2d_56">
    <g clip-path="url(#p6bace90d5f)">
     <use xlink:href="#m76e1ec6d67" x="115.345509" y="293.035636" style="fill: #1f77b4; stroke: #222222"/>
     <use xlink:href="#m76e1ec6d67" x="236.080652" y="324.123349" style="fill: #1f77b4; stroke: #222222"/>
    </g>
   </g>
   <g id="line2d_57">
    <g clip-path="url(#p6bace90d5f)">
     <use xlink:href="#m76e1ec6d67" x="115.345509" y="285.80335" style="fill: #1f77b4; stroke: #222222"/>
     <use xlink:href="#m76e1ec6d67" x="236.080652" y="320.540411" style="fill: #1f77b4; stroke: #222222"/>
    </g>
   </g>
  </g>
  <g id="axes_4">
   <g id="patch_17">
    <path d="M 350.621558 428.058344 
L 607.839906 428.058344 
L 607.839906 267.15917 
L 350.621558 267.15917 
z
" style="fill: #ffffff"/>
   </g>
   <g id="matplotlib.axis_7">
    <g id="xtick_7">
     <g id="line2d_58"/>
     <g id="text_32">
      <!-- Negative -->
      <g transform="translate(396.422535 439.656781) scale(0.1 -0.1)">
       <use xlink:href="#DejaVuSans-31"/>
       <use xlink:href="#DejaVuSans-48" transform="translate(74.8125 0)"/>
       <use xlink:href="#DejaVuSans-4a" transform="translate(136.34375 0)"/>
       <use xlink:href="#DejaVuSans-44" transform="translate(199.828125 0)"/>
       <use xlink:href="#DejaVuSans-57" transform="translate(261.109375 0)"/>
       <use xlink:href="#DejaVuSans-4c" transform="translate(300.3125 0)"/>
       <use xlink:href="#DejaVuSans-59" transform="translate(328.09375 0)"/>
       <use xlink:href="#DejaVuSans-48" transform="translate(387.28125 0)"/>
      </g>
     </g>
    </g>
    <g id="xtick_8">
     <g id="line2d_59"/>
     <g id="text_33">
      <!-- Neutral -->
      <g transform="translate(521.143616 439.656781) scale(0.1 -0.1)">
       <use xlink:href="#DejaVuSans-31"/>
       <use xlink:href="#DejaVuSans-48" transform="translate(74.8125 0)"/>
       <use xlink:href="#DejaVuSans-58" transform="translate(136.34375 0)"/>
       <use xlink:href="#DejaVuSans-57" transform="translate(199.71875 0)"/>
       <use xlink:href="#DejaVuSans-55" transform="translate(238.921875 0)"/>
       <use xlink:href="#DejaVuSans-44" transform="translate(280.03125 0)"/>
       <use xlink:href="#DejaVuSans-4f" transform="translate(341.3125 0)"/>
      </g>
     </g>
    </g>
   </g>
   <g id="matplotlib.axis_8">
    <g id="ytick_22">
     <g id="line2d_60">
      <path d="M 350.621558 428.058344 
L 607.839906 428.058344 
" clip-path="url(#pde9a88ac46)" style="fill: none; stroke: #d9d9d9; stroke-width: 0.7; stroke-linecap: square"/>
     </g>
     <g id="line2d_61">
      <g>
       <use xlink:href="#md4b44138a6" x="350.621558" y="428.058344" style="stroke: #000000; stroke-width: 0.8"/>
      </g>
     </g>
    </g>
    <g id="ytick_23">
     <g id="line2d_62">
      <path d="M 350.621558 402.106864 
L 607.839906 402.106864 
" clip-path="url(#pde9a88ac46)" style="fill: none; stroke: #d9d9d9; stroke-width: 0.7; stroke-linecap: square"/>
     </g>
     <g id="line2d_63">
      <g>
       <use xlink:href="#md4b44138a6" x="350.621558" y="402.106864" style="stroke: #000000; stroke-width: 0.8"/>
      </g>
     </g>
    </g>
    <g id="ytick_24">
     <g id="line2d_64">
      <path d="M 350.621558 376.155385 
L 607.839906 376.155385 
" clip-path="url(#pde9a88ac46)" style="fill: none; stroke: #d9d9d9; stroke-width: 0.7; stroke-linecap: square"/>
     </g>
     <g id="line2d_65">
      <g>
       <use xlink:href="#md4b44138a6" x="350.621558" y="376.155385" style="stroke: #000000; stroke-width: 0.8"/>
      </g>
     </g>
    </g>
    <g id="ytick_25">
     <g id="line2d_66">
      <path d="M 350.621558 350.203905 
L 607.839906 350.203905 
" clip-path="url(#pde9a88ac46)" style="fill: none; stroke: #d9d9d9; stroke-width: 0.7; stroke-linecap: square"/>
     </g>
     <g id="line2d_67">
      <g>
       <use xlink:href="#md4b44138a6" x="350.621558" y="350.203905" style="stroke: #000000; stroke-width: 0.8"/>
      </g>
     </g>
    </g>
    <g id="ytick_26">
     <g id="line2d_68">
      <path d="M 350.621558 324.252425 
L 607.839906 324.252425 
" clip-path="url(#pde9a88ac46)" style="fill: none; stroke: #d9d9d9; stroke-width: 0.7; stroke-linecap: square"/>
     </g>
     <g id="line2d_69">
      <g>
       <use xlink:href="#md4b44138a6" x="350.621558" y="324.252425" style="stroke: #000000; stroke-width: 0.8"/>
      </g>
     </g>
    </g>
    <g id="ytick_27">
     <g id="line2d_70">
      <path d="M 350.621558 298.300946 
L 607.839906 298.300946 
" clip-path="url(#pde9a88ac46)" style="fill: none; stroke: #d9d9d9; stroke-width: 0.7; stroke-linecap: square"/>
     </g>
     <g id="line2d_71">
      <g>
       <use xlink:href="#md4b44138a6" x="350.621558" y="298.300946" style="stroke: #000000; stroke-width: 0.8"/>
      </g>
     </g>
    </g>
    <g id="ytick_28">
     <g id="line2d_72">
      <path d="M 350.621558 272.349466 
L 607.839906 272.349466 
" clip-path="url(#pde9a88ac46)" style="fill: none; stroke: #d9d9d9; stroke-width: 0.7; stroke-linecap: square"/>
     </g>
     <g id="line2d_73">
      <g>
       <use xlink:href="#md4b44138a6" x="350.621558" y="272.349466" style="stroke: #000000; stroke-width: 0.8"/>
      </g>
     </g>
    </g>
   </g>
   <g id="line2d_74">
    <path d="M 418.86316 282.723759 
L 418.86316 280.907155 
L 539.598304 280.907155 
L 539.598304 282.723759 
" style="fill: none; stroke: #333333; stroke-width: 0.9; stroke-linecap: square"/>
   </g>
   <g id="patch_18">
    <path d="M 350.621558 428.058344 
L 350.621558 267.15917 
" style="fill: none; stroke: #000000; stroke-linejoin: miter; stroke-linecap: square"/>
   </g>
   <g id="patch_19">
    <path d="M 350.621558 428.058344 
L 607.839906 428.058344 
" style="fill: none; stroke: #000000; stroke-linejoin: miter; stroke-linecap: square"/>
   </g>
   <g id="patch_20">
    <path d="M 378.180666 428.058344 
L 459.545654 428.058344 
L 459.545654 290.71993 
L 378.180666 290.71993 
z
" clip-path="url(#pde9a88ac46)" style="fill: #ed706b; stroke: #333333; stroke-width: 0.8; stroke-linejoin: miter"/>
   </g>
   <g id="patch_21">
    <path d="M 498.91581 428.058344 
L 580.280797 428.058344 
L 580.280797 321.687632 
L 498.91581 321.687632 
z
" clip-path="url(#pde9a88ac46)" style="fill: #666666; stroke: #333333; stroke-width: 0.8; stroke-linejoin: miter"/>
   </g>
   <g id="text_34">
    <!-- D -->
    <g transform="translate(319.755356 261.622636) scale(0.13 -0.13)">
     <defs>
      <path id="DejaVuSans-Bold-27" d="M 1791 3756 
L 1791 909 
L 2222 909 
Q 2959 909 3348 1275 
Q 3738 1641 3738 2338 
Q 3738 3031 3350 3393 
Q 2963 3756 2222 3756 
L 1791 3756 
z
M 588 4666 
L 1856 4666 
Q 2919 4666 3439 4514 
Q 3959 4363 4331 4000 
Q 4659 3684 4818 3271 
Q 4978 2859 4978 2338 
Q 4978 1809 4818 1395 
Q 4659 981 4331 666 
Q 3956 303 3431 151 
Q 2906 0 1856 0 
L 588 0 
L 588 4666 
z
" transform="scale(0.015625)"/>
     </defs>
     <use xlink:href="#DejaVuSans-Bold-27"/>
    </g>
   </g>
   <g id="text_35">
    <!-- $\Delta=0.12$ -->
    <g style="fill: #333333" transform="translate(460.600732 277.187957) scale(0.09 -0.09)">
     <use xlink:href="#DejaVuSans-329" transform="translate(0 0.78125)"/>
     <use xlink:href="#DejaVuSans-20" transform="translate(87.890625 0.78125)"/>
     <use xlink:href="#DejaVuSans-13" transform="translate(191.162109 0.78125)"/>
     <use xlink:href="#DejaVuSans-11" transform="translate(254.785156 0.78125)"/>
     <use xlink:href="#DejaVuSans-14" transform="translate(286.572266 0.78125)"/>
     <use xlink:href="#DejaVuSans-15" transform="translate(350.195312 0.78125)"/>
    </g>
   </g>
   <g id="text_36">
    <!-- Emotion-based + LPP-based -->
    <g transform="translate(405.168818 245.786358) scale(0.105 -0.105)">
     <defs>
      <path id="DejaVuSans-e" d="M 2944 4013 
L 2944 2272 
L 4684 2272 
L 4684 1741 
L 2944 1741 
L 2944 0 
L 2419 0 
L 2419 1741 
L 678 1741 
L 678 2272 
L 2419 2272 
L 2419 4013 
L 2944 4013 
z
" transform="scale(0.015625)"/>
     </defs>
     <use xlink:href="#DejaVuSans-28"/>
     <use xlink:href="#DejaVuSans-50" transform="translate(63.1875 0)"/>
     <use xlink:href="#DejaVuSans-52" transform="translate(160.59375 0)"/>
     <use xlink:href="#DejaVuSans-57" transform="translate(221.78125 0)"/>
     <use xlink:href="#DejaVuSans-4c" transform="translate(260.984375 0)"/>
     <use xlink:href="#DejaVuSans-52" transform="translate(288.765625 0)"/>
     <use xlink:href="#DejaVuSans-51" transform="translate(349.953125 0)"/>
     <use xlink:href="#DejaVuSans-10" transform="translate(413.328125 0)"/>
     <use xlink:href="#DejaVuSans-45" transform="translate(449.40625 0)"/>
     <use xlink:href="#DejaVuSans-44" transform="translate(512.890625 0)"/>
     <use xlink:href="#DejaVuSans-56" transform="translate(574.171875 0)"/>
     <use xlink:href="#DejaVuSans-48" transform="translate(626.265625 0)"/>
     <use xlink:href="#DejaVuSans-47" transform="translate(687.796875 0)"/>
     <use xlink:href="#DejaVuSans-3" transform="translate(751.28125 0)"/>
     <use xlink:href="#DejaVuSans-e" transform="translate(783.0625 0)"/>
     <use xlink:href="#DejaVuSans-3" transform="translate(866.859375 0)"/>
     <use xlink:href="#DejaVuSans-2f" transform="translate(898.640625 0)"/>
     <use xlink:href="#DejaVuSans-33" transform="translate(954.359375 0)"/>
     <use xlink:href="#DejaVuSans-33" transform="translate(1014.65625 0)"/>
     <use xlink:href="#DejaVuSans-10" transform="translate(1072.75 0)"/>
     <use xlink:href="#DejaVuSans-45" transform="translate(1108.828125 0)"/>
     <use xlink:href="#DejaVuSans-44" transform="translate(1172.3125 0)"/>
     <use xlink:href="#DejaVuSans-56" transform="translate(1233.59375 0)"/>
     <use xlink:href="#DejaVuSans-48" transform="translate(1285.6875 0)"/>
     <use xlink:href="#DejaVuSans-47" transform="translate(1347.21875 0)"/>
    </g>
    <!-- learning boost for negative items only -->
    <g transform="translate(379.036943 257.15917) scale(0.105 -0.105)">
     <use xlink:href="#DejaVuSans-4f"/>
     <use xlink:href="#DejaVuSans-48" transform="translate(27.78125 0)"/>
     <use xlink:href="#DejaVuSans-44" transform="translate(89.3125 0)"/>
     <use xlink:href="#DejaVuSans-55" transform="translate(150.59375 0)"/>
     <use xlink:href="#DejaVuSans-51" transform="translate(189.953125 0)"/>
     <use xlink:href="#DejaVuSans-4c" transform="translate(253.328125 0)"/>
     <use xlink:href="#DejaVuSans-51" transform="translate(281.109375 0)"/>
     <use xlink:href="#DejaVuSans-4a" transform="translate(344.484375 0)"/>
     <use xlink:href="#DejaVuSans-3" transform="translate(407.96875 0)"/>
     <use xlink:href="#DejaVuSans-45" transform="translate(439.75 0)"/>
     <use xlink:href="#DejaVuSans-52" transform="translate(503.234375 0)"/>
     <use xlink:href="#DejaVuSans-52" transform="translate(564.421875 0)"/>
     <use xlink:href="#DejaVuSans-56" transform="translate(625.609375 0)"/>
     <use xlink:href="#DejaVuSans-57" transform="translate(677.703125 0)"/>
     <use xlink:href="#DejaVuSans-3" transform="translate(716.90625 0)"/>
     <use xlink:href="#DejaVuSans-49" transform="translate(748.6875 0)"/>
     <use xlink:href="#DejaVuSans-52" transform="translate(783.890625 0)"/>
     <use xlink:href="#DejaVuSans-55" transform="translate(845.078125 0)"/>
     <use xlink:href="#DejaVuSans-3" transform="translate(886.1875 0)"/>
     <use xlink:href="#DejaVuSans-51" transform="translate(917.96875 0)"/>
     <use xlink:href="#DejaVuSans-48" transform="translate(981.34375 0)"/>
     <use xlink:href="#DejaVuSans-4a" transform="translate(1042.875 0)"/>
     <use xlink:href="#DejaVuSans-44" transform="translate(1106.359375 0)"/>
     <use xlink:href="#DejaVuSans-57" transform="translate(1167.640625 0)"/>
     <use xlink:href="#DejaVuSans-4c" transform="translate(1206.84375 0)"/>
     <use xlink:href="#DejaVuSans-59" transform="translate(1234.625 0)"/>
     <use xlink:href="#DejaVuSans-48" transform="translate(1293.8125 0)"/>
     <use xlink:href="#DejaVuSans-3" transform="translate(1355.34375 0)"/>
     <use xlink:href="#DejaVuSans-4c" transform="translate(1387.125 0)"/>
     <use xlink:href="#DejaVuSans-57" transform="translate(1414.90625 0)"/>
     <use xlink:href="#DejaVuSans-48" transform="translate(1454.109375 0)"/>
     <use xlink:href="#DejaVuSans-50" transform="translate(1515.640625 0)"/>
     <use xlink:href="#DejaVuSans-56" transform="translate(1613.046875 0)"/>
     <use xlink:href="#DejaVuSans-3" transform="translate(1665.140625 0)"/>
     <use xlink:href="#DejaVuSans-52" transform="translate(1696.921875 0)"/>
     <use xlink:href="#DejaVuSans-51" transform="translate(1758.109375 0)"/>
     <use xlink:href="#DejaVuSans-4f" transform="translate(1821.484375 0)"/>
     <use xlink:href="#DejaVuSans-5c" transform="translate(1849.265625 0)"/>
    </g>
   </g>
   <g id="LineCollection_4">
    <path d="M 418.86316 294.985432 
L 418.86316 286.616481 
" clip-path="url(#pde9a88ac46)" style="fill: none; stroke: #222222; stroke-width: 1.1"/>
    <path d="M 539.598304 323.720516 
L 539.598304 319.574464 
" clip-path="url(#pde9a88ac46)" style="fill: none; stroke: #222222; stroke-width: 1.1"/>
   </g>
   <g id="line2d_75">
    <g clip-path="url(#pde9a88ac46)">
     <use xlink:href="#m76e1ec6d67" x="418.86316" y="294.985432" style="fill: #1f77b4; stroke: #222222"/>
     <use xlink:href="#m76e1ec6d67" x="539.598304" y="323.720516" style="fill: #1f77b4; stroke: #222222"/>
    </g>
   </g>
   <g id="line2d_76">
    <g clip-path="url(#pde9a88ac46)">
     <use xlink:href="#m76e1ec6d67" x="418.86316" y="286.616481" style="fill: #1f77b4; stroke: #222222"/>
     <use xlink:href="#m76e1ec6d67" x="539.598304" y="319.574464" style="fill: #1f77b4; stroke: #222222"/>
    </g>
   </g>
  </g>
 </g>
 <defs>
  <clipPath id="pbbfd309a0f">
   <rect x="47.103906" y="38.682344" width="257.218349" height="160.899174"/>
  </clipPath>
  <clipPath id="p3a67f06783">
   <rect x="350.621558" y="38.682344" width="257.218349" height="160.899174"/>
  </clipPath>
  <clipPath id="p6bace90d5f">
   <rect x="47.103906" y="267.15917" width="257.218349" height="160.899174"/>
  </clipPath>
  <clipPath id="pde9a88ac46">
   <rect x="350.621558" y="267.15917" width="257.218349" height="160.899174"/>
  </clipPath>
 </defs>
</svg>
